<svg width="88" height="20" viewBox="0 0 88 20" fill="none" xmlns="http://www.w3.org/2000/svg">
<rect width="88" height="20" rx="10" fill="#F3F3F3" fill-opacity="0.6"/>
<path d="M15.0002 13.5L15.4684 13.5425C15.7496 13.5973 16.0193 13.4051 16.0591 13.1213L16.8179 7.72263C16.8573 7.44197 16.6558 7.18466 16.3739 7.15567L15.2502 7M9.00024 13.5L8.42739 13.5557C8.14925 13.6036 7.88656 13.412 7.84728 13.1325L7.08697 7.72263C7.04752 7.44197 7.24901 7.18466 7.53094 7.15567L8.75024 7M10.5001 14H13.5001C13.7763 14 14.0001 13.7761 14.0001 13.5V6.5C14.0001 6.22386 13.7763 6 13.5001 6H10.5001C10.224 6 10.0001 6.22386 10.0001 6.5V13.5C10.0001 13.7761 10.224 14 10.5001 14Z" stroke="#333368"/>
<path d="M25.6768 14L23.0768 6.55H24.5568L26.5968 12.72H26.3068L28.3468 6.55H29.8268L27.2368 14H25.6768ZM30.5495 14V8.56H31.8595V14H30.5495ZM30.5495 7.95V6.55H31.8595V7.95H30.5495ZM35.649 14.12C35.089 14.12 34.599 13.9933 34.179 13.74C33.759 13.4867 33.4323 13.1433 33.199 12.71C32.9657 12.2767 32.849 11.7967 32.849 11.27C32.849 10.7233 32.9657 10.24 33.199 9.82C33.439 9.39333 33.7623 9.05667 34.169 8.81C34.5823 8.56333 35.0423 8.44 35.549 8.44C35.9757 8.44 36.349 8.51 36.669 8.65C36.9957 8.79 37.2723 8.98333 37.499 9.23C37.7257 9.47667 37.899 9.76 38.019 10.08C38.139 10.3933 38.199 10.7333 38.199 11.1C38.199 11.1933 38.1923 11.29 38.179 11.39C38.1723 11.49 38.1557 11.5767 38.129 11.65H33.929V10.65H37.389L36.769 11.12C36.829 10.8133 36.8123 10.54 36.719 10.3C36.6323 10.06 36.4857 9.87 36.279 9.73C36.079 9.59 35.8357 9.52 35.549 9.52C35.2757 9.52 35.0323 9.59 34.819 9.73C34.6057 9.86333 34.4423 10.0633 34.329 10.33C34.2223 10.59 34.1823 10.9067 34.209 11.28C34.1823 11.6133 34.2257 11.91 34.339 12.17C34.459 12.4233 34.6323 12.62 34.859 12.76C35.0923 12.9 35.359 12.97 35.659 12.97C35.959 12.97 36.2123 12.9067 36.419 12.78C36.6323 12.6533 36.799 12.4833 36.919 12.27L37.979 12.79C37.8723 13.05 37.7057 13.28 37.479 13.48C37.2523 13.68 36.9823 13.8367 36.669 13.95C36.3623 14.0633 36.0223 14.12 35.649 14.12ZM40.562 14L38.692 8.56H40.072L41.442 12.69L40.962 12.68L42.422 8.56H43.582L45.032 12.68L44.552 12.69L45.922 8.56H47.302L45.432 14H44.262L42.782 9.69H43.222L41.722 14H40.562ZM52.5675 14.12C52.0942 14.12 51.6542 14.0333 51.2475 13.86C50.8475 13.6867 50.5008 13.4467 50.2075 13.14C49.9208 12.8267 49.7108 12.4633 49.5775 12.05L50.7075 11.56C50.8875 11.9867 51.1475 12.3233 51.4875 12.57C51.8275 12.81 52.2108 12.93 52.6375 12.93C52.8775 12.93 53.0842 12.8933 53.2575 12.82C53.4375 12.74 53.5742 12.6333 53.6675 12.5C53.7675 12.3667 53.8175 12.2067 53.8175 12.02C53.8175 11.8 53.7508 11.62 53.6175 11.48C53.4908 11.3333 53.2975 11.22 53.0375 11.14L51.6075 10.68C51.0275 10.5 50.5908 10.23 50.2975 9.87C50.0042 9.51 49.8575 9.08667 49.8575 8.6C49.8575 8.17333 49.9608 7.79667 50.1675 7.47C50.3808 7.14333 50.6742 6.89 51.0475 6.71C51.4275 6.52333 51.8608 6.43 52.3475 6.43C52.7942 6.43 53.2042 6.51 53.5775 6.67C53.9508 6.82333 54.2708 7.04 54.5375 7.32C54.8108 7.59333 55.0142 7.91667 55.1475 8.29L54.0275 8.79C53.8808 8.41667 53.6608 8.13 53.3675 7.93C53.0742 7.72333 52.7342 7.62 52.3475 7.62C52.1208 7.62 51.9208 7.66 51.7475 7.74C51.5742 7.81333 51.4375 7.92 51.3375 8.06C51.2442 8.19333 51.1975 8.35333 51.1975 8.54C51.1975 8.74667 51.2642 8.93 51.3975 9.09C51.5308 9.24333 51.7342 9.36333 52.0075 9.45L53.3775 9.88C53.9708 10.0733 54.4142 10.34 54.7075 10.68C55.0075 11.02 55.1575 11.44 55.1575 11.94C55.1575 12.3667 55.0475 12.7433 54.8275 13.07C54.6075 13.3967 54.3042 13.6533 53.9175 13.84C53.5308 14.0267 53.0808 14.12 52.5675 14.12ZM56.2721 14V8.56H57.5821V14H56.2721ZM56.2721 7.95V6.55H57.5821V7.95H56.2721ZM58.7916 14V8.56H60.0216V9.82L59.8816 9.61C59.9816 9.21667 60.1816 8.92333 60.4816 8.73C60.7816 8.53667 61.135 8.44 61.5416 8.44C61.9883 8.44 62.3816 8.55667 62.7216 8.79C63.0616 9.02333 63.2816 9.33 63.3816 9.71L63.0116 9.74C63.1783 9.30667 63.4283 8.98333 63.7616 8.77C64.095 8.55 64.4783 8.44 64.9116 8.44C65.2983 8.44 65.6416 8.52667 65.9416 8.7C66.2483 8.87333 66.4883 9.11667 66.6616 9.43C66.835 9.73667 66.9216 10.0933 66.9216 10.5V14H65.6116V10.81C65.6116 10.57 65.5683 10.3633 65.4816 10.19C65.395 10.0167 65.275 9.88333 65.1216 9.79C64.9683 9.69 64.7816 9.64 64.5616 9.64C64.355 9.64 64.1716 9.69 64.0116 9.79C63.8516 9.88333 63.7283 10.0167 63.6416 10.19C63.555 10.3633 63.5116 10.57 63.5116 10.81V14H62.2016V10.81C62.2016 10.57 62.1583 10.3633 62.0716 10.19C61.985 10.0167 61.8616 9.88333 61.7016 9.79C61.5483 9.69 61.365 9.64 61.1516 9.64C60.945 9.64 60.7616 9.69 60.6016 9.79C60.4416 9.88333 60.3183 10.0167 60.2316 10.19C60.145 10.3633 60.1016 10.57 60.1016 10.81V14H58.7916ZM68.0299 14V8.56H69.3399V14H68.0299ZM68.0299 7.95V6.55H69.3399V7.95H68.0299ZM70.5495 14V6.43H71.8595V14H70.5495ZM74.719 14.12C74.339 14.12 74.009 14.0567 73.729 13.93C73.449 13.8033 73.2323 13.6233 73.079 13.39C72.9257 13.15 72.849 12.8733 72.849 12.56C72.849 12.26 72.9157 11.9933 73.049 11.76C73.1823 11.52 73.389 11.32 73.669 11.16C73.949 11 74.3023 10.8867 74.729 10.82L76.509 10.53V11.53L74.979 11.79C74.719 11.8367 74.5257 11.92 74.399 12.04C74.2723 12.16 74.209 12.3167 74.209 12.51C74.209 12.6967 74.279 12.8467 74.419 12.96C74.5657 13.0667 74.7457 13.12 74.959 13.12C75.2323 13.12 75.4723 13.0633 75.679 12.95C75.8923 12.83 76.0557 12.6667 76.169 12.46C76.289 12.2533 76.349 12.0267 76.349 11.78V10.38C76.349 10.1467 76.2557 9.95333 76.069 9.8C75.889 9.64 75.649 9.56 75.349 9.56C75.069 9.56 74.819 9.63667 74.599 9.79C74.3857 9.93667 74.229 10.1333 74.129 10.38L73.059 9.86C73.1657 9.57333 73.3323 9.32667 73.559 9.12C73.7923 8.90667 74.0657 8.74 74.379 8.62C74.6923 8.5 75.0323 8.44 75.399 8.44C75.8457 8.44 76.239 8.52333 76.579 8.69C76.919 8.85 77.1823 9.07667 77.369 9.37C77.5623 9.65667 77.659 9.99333 77.659 10.38V14H76.419V13.07L76.699 13.05C76.559 13.2833 76.3923 13.48 76.199 13.64C76.0057 13.7933 75.7857 13.9133 75.539 14C75.2923 14.08 75.019 14.12 74.719 14.12ZM78.8698 14V8.56H80.0998V9.77L79.9998 9.59C80.1264 9.18333 80.3231 8.9 80.5898 8.74C80.8631 8.58 81.1898 8.5 81.5698 8.5H81.8898V9.66H81.4198C81.0464 9.66 80.7464 9.77667 80.5198 10.01C80.2931 10.2367 80.1798 10.5567 80.1798 10.97V14H78.8698Z" fill="#333368"/>
</svg>
